/* XPM */
static char *brave_logo[] = {
/* columns rows colors chars-per-pixel */
"15 18 138 2 ",
"   c None",
".  c #DC3623",
"X  c #DB3624",
"o  c #DD3724",
"O  c #DC3725",
"+  c #DE3724",
"@  c #DB3927",
"#  c #DD3825",
"$  c #DE3825",
"%  c #DF3825",
"&  c #DC3826",
"*  c #DD3926",
"=  c #DC3927",
"-  c #DD3927",
";  c #DE3926",
":  c #DF3926",
">  c #DC3B29",
",  c #E13725",
"<  c #E13927",
"1  c #E23927",
"2  c #E53925",
"3  c #E53A26",
"4  c #E23B2A",
"5  c #E53C28",
"6  c #E03F2D",
"7  c #DF402E",
"8  c #E74127",
"9  c #E74328",
"0  c #E64229",
"q  c #E74329",
"w  c #E7442A",
"e  c #E0412F",
"r  c #E74829",
"t  c #E84828",
"y  c #E84929",
"u  c #E94C28",
"i  c #E94D28",
"p  c #E84C29",
"a  c #E94D29",
"s  c #E94E29",
"d  c #E84C2A",
"f  c #E84D2A",
"g  c #E84E2A",
"h  c #E94E2A",
"j  c #E94F2B",
"k  c #E94F2C",
"l  c #E84D2E",
"z  c #E04735",
"x  c #E04938",
"c  c #E14B3A",
"v  c #E85031",
"b  c #E95331",
"n  c #EA5937",
"m  c #EA5A38",
"M  c #EA5D3E",
"N  c #E65546",
"B  c #E85442",
"V  c #EA5C45",
"C  c #E25B4C",
"Z  c #EC694A",
"A  c #E46456",
"S  c #EA6150",
"D  c #ED6F52",
"F  c #E66A5C",
"G  c #EC6E5F",
"H  c #ED7458",
"J  c #E67164",
"K  c #EC7062",
"L  c #E87365",
"P  c #EE7C62",
"I  c #EF7D62",
"U  c #EA7F72",
"Y  c #EA8074",
"T  c #EB857A",
"R  c #ED877B",
"E  c #F08971",
"W  c #F08A76",
"Q  c #F08B7B",
"!  c #F1907A",
"~  c #EE9187",
"^  c #EF958C",
"/  c #F19181",
"(  c #F29788",
")  c #F29B89",
"_  c #F1988D",
"`  c #EE9A90",
"'  c #EF9A91",
"]  c #EFA39A",
"[  c #F3A190",
"{  c #F4A593",
"}  c #F1A59C",
"|  c #F2A9A1",
" . c #F5B0A4",
".. c #F5B1A7",
"X. c #F5B2A7",
"o. c #F3B0A9",
"O. c #F3B2AB",
"+. c #F6B8AD",
"@. c #F4B9B2",
"#. c #F4BCB6",
"$. c #F7C2B6",
"%. c #F7C5BB",
"&. c #F5C2BC",
"*. c #F5C3BD",
"=. c #F6C5C0",
"-. c #F8CAC0",
";. c #F8D1CC",
":. c #F8D2CD",
">. c #FAD5CD",
",. c #FAD6D1",
"<. c #FAD6D2",
"1. c #FADDD9",
"2. c #FBE2DC",
"3. c #FBE2DE",
"4. c #FAE2DF",
"5. c #FBE3E0",
"6. c #FBE4E1",
"7. c #FCE7E2",
"8. c #FCE8E5",
"9. c #FCE9E7",
"0. c #FCEAE6",
"q. c #FCEAE8",
"w. c #FCEDEB",
"e. c #FDEDEB",
"r. c #FDEEEB",
"t. c #FCEEEC",
"y. c #FDF0ED",
"u. c #FDF1F0",
"i. c #FDF4F3",
"p. c #FEF4F2",
"a. c #FDF5F4",
"s. c #FEF6F5",
"d. c #FEF7F5",
"f. c #FEF7F6",
"g. c #FEF8F7",
"h. c #FEF9F8",
"j. c #FFFDFD",
"k. c white",
/* pixels */
"        p y q 5 < : :         ",
"      p y y 8 2 , : : +       ",
"  p p n M v V G N e c z : :   ",
"p p m $.7.>.0.h.0.:.6.&.x : @ ",
"p k { y.-.-.r.k.r.=.&.t.] > @ ",
"p D r.g.-.W ( k.^ U &.a.u.A X ",
"p Z 2.k.k.3. .k.o.1.k.k.3.C X ",
"p p I 0.k. .+.k.@.} k.q.J X @ ",
"  p p E g.%.Q _ R #.h.Y + :   ",
"  p p H p.k.<.K :.k.a.F . :   ",
"  p p I a.a. .S | a.g.L . :   ",
"  p p v ! [  .<.o.' T 7 : :   ",
"    p p p ) a.k.h.' : : :     ",
"    p p p l / 5.~ 6 : : :     ",
"      p p r w B 4 : : :       ",
"        p r q 2 < : :         ",
"          r q 5 < :           ",
"            q 5 <             "
};
