/* XPM */
static char *discord_test[] = {
/* columns rows colors chars-per-pixel */
"18 18 155 2 ",
"   c None",
".  c #5B72C3",
"X  c #5D71C1",
"o  c #5C72C2",
"O  c #5C72C3",
"+  c #5C73C3",
"@  c #5D73C3",
"#  c #5B72C4",
"$  c #5D73C4",
"%  c #5D74C5",
"&  c #5E74C4",
"*  c #5F75C4",
"=  c #5E75C5",
"-  c #5F76C6",
";  c #6375C1",
":  c #6175C3",
">  c #6375C2",
",  c #6275C3",
"<  c #6176C3",
"1  c #6376C2",
"2  c #6276C3",
"3  c #6475C0",
"4  c #6476C2",
"5  c #6076C4",
"6  c #6176C4",
"7  c #6076C5",
"8  c #6177C5",
"9  c #6477C4",
"0  c #6877C0",
"q  c #6278C6",
"w  c #6378C6",
"e  c #637AC7",
"r  c #6479C5",
"t  c #677AC5",
"y  c #677CC7",
"u  c #6878C1",
"i  c #6F7BC0",
"p  c #687BC5",
"a  c #6E7EC5",
"s  c #6C7DC6",
"d  c #657BC8",
"f  c #677DC8",
"g  c #677DC9",
"h  c #687DC9",
"j  c #687EC9",
"k  c #707EC3",
"l  c #6B80C9",
"z  c #6A80CA",
"x  c #6B80CA",
"c  c #6B81CA",
"v  c #6C81CA",
"b  c #6F83CA",
"n  c #6E83CB",
"m  c #6F84CB",
"M  c #7684C6",
"N  c #7685C7",
"B  c #7786C8",
"V  c #7085CC",
"C  c #7286CC",
"Z  c #7387CD",
"A  c #7488CD",
"S  c #7588CD",
"D  c #7589CD",
"F  c #7689CE",
"G  c #768ACE",
"H  c #778BCE",
"J  c #788BCF",
"K  c #788CCF",
"L  c #798CCF",
"P  c #798DCF",
"I  c #7A8DCF",
"U  c #7B8ED0",
"Y  c #7C8ED0",
"T  c #7D8FD0",
"R  c #7D90D1",
"E  c #7E90D1",
"W  c #7E91D1",
"Q  c #7F91D1",
"!  c #8092D1",
"~  c #8092D2",
"^  c #8193D2",
"/  c #8293D2",
"(  c #8294D2",
")  c #8395D2",
"_  c #8395D3",
"`  c #8496D3",
"'  c #8597D3",
"]  c #8697D3",
"[  c #8798D4",
"{  c #8B99D0",
"}  c #8B99D1",
"|  c #8C9AD2",
" . c #8899D4",
".. c #8B9CD5",
"X. c #8C9CD6",
"o. c #8F9FD6",
"O. c #9AA4D4",
"+. c #99A6D6",
"@. c #9BA7D6",
"#. c #9AA7D7",
"$. c #9DAADA",
"%. c #9FACDB",
"&. c #A4ABD5",
"*. c #A5ADD7",
"=. c #A7AFD7",
"-. c #A7B3DE",
";. c #ABB7DE",
":. c #AAB6DF",
">. c #B5BCDD",
",. c #B9BEDD",
"<. c #B8BFDF",
"1. c #B8C0E1",
"2. c #B9C1E1",
"3. c #B9C3E3",
"4. c #BBC3E2",
"5. c #BAC3E3",
"6. c #BEC3E0",
"7. c #C2C6E1",
"8. c #C4C9E3",
"9. c #C8CCE4",
"0. c #C9CEE5",
"q. c #CFD2E7",
"w. c #D2D6E8",
"e. c #D1D7EB",
"r. c #D5D8E8",
"t. c #D7DAE9",
"y. c #D9DBEA",
"u. c #D9DCEA",
"i. c #DADCEA",
"p. c #DBDDEB",
"a. c #DDDFEC",
"s. c #E4E6EE",
"d. c #E4E6EF",
"f. c #E6E7EF",
"g. c #EAEBF0",
"h. c #E9EBF2",
"j. c #EBECF1",
"k. c #ECEDF2",
"l. c #EDEDF2",
"z. c #ECEEF3",
"x. c #EEEFF2",
"c. c #EFEFF3",
"v. c #EFF0F3",
"b. c #F1F1F3",
"n. c #F2F2F3",
"m. c #F1F1F4",
"M. c #F2F3F4",
"N. c #F3F3F4",
"B. c #F5F5F4",
"V. c #F5F5F5",
"C. c #F6F6F5",
"Z. c #F7F7F5",
"A. c #F7F6F6",
"S. c #F7F7F6",
"D. c #F8F8F7",
/* pixels */
"                                    ",
"            [ ( ^ T K K             ",
"        X.[ ] ^ W U K H C C         ",
"      X. .] ( ^ W U H H C m n       ",
"    .. .] ( ] ^ U J K J C n c c     ",
"    [ ]  .-.1.1.1.1.1.1.$.C c j     ",
"  ] ] ^ :.z.m.S.S.S.S.v.z.#.f f d   ",
"  ( ^ ( e.D.S.S.S.S.S.S.S.9.p d w   ",
"  W W X.g.S.u.7.z.z.6.a.S.d.B : w   ",
"  T K %.m.S.&.i u.e.0 =.S.b.{ X &   ",
"  K H :.S.m.t.<.z.j.>.t.b.S.#.X X   ",
"  H H $.v.d.q.y.d.d.u.9.u.g.| X $   ",
"    C H #.8.=.k N N a #.<.{ 6 &     ",
"    n m n a u 4 : : : 9 6 & & #     ",
"      c n c r 4 : : 6 6 6 & #       ",
"        y j f r : 6 6 & & .         ",
"            w w 6 & & X             ",
"                                    "
};
