/* XPM */
static char *gentoo_logotest[] = {
/* columns rows colors chars-per-pixel */
"18 18 161 2 ",
"   c None",
".  c #787486",
"X  c #7F7A88",
"o  c #767594",
"O  c #787591",
"+  c #7B7991",
"@  c #7D7B99",
"#  c #817D92",
"$  c #837F95",
"%  c #84808F",
"&  c #8A8493",
"*  c #8B879B",
"=  c #8885A1",
"-  c #8A88A7",
";  c #8F8DA5",
":  c #8483A8",
">  c #8B89A8",
",  c #928FA4",
"<  c #9492AC",
"1  c #8E8EB3",
"2  c #8F91BA",
"3  c #9794B6",
"4  c #9394BB",
"5  c #9596BB",
"6  c #9696BC",
"7  c #9A99BE",
"8  c #9A9CC7",
"9  c #A19FC1",
"0  c #9FA0C6",
"q  c #A5A5CA",
"w  c #A3A2CE",
"e  c #A5A7CD",
"r  c #A9A6CE",
"t  c #A7A9CF",
"y  c #ABA8CB",
"u  c #A3A5D3",
"i  c #ABACD1",
"p  c #B5AFD8",
"a  c #B8B2D6",
"s  c #B8B6D9",
"d  c #BCB8D9",
"f  c #B4B5E7",
"g  c #BDB8E0",
"h  c #B6B4E8",
"j  c #B1B0EE",
"k  c #B7B6ED",
"l  c #BDBDEE",
"z  c #A9A8F2",
"x  c #AAAAF6",
"c  c #ABABF8",
"v  c #ABABF9",
"b  c #ADADF9",
"n  c #B0AFF4",
"m  c #BEBEF1",
"M  c #BDBDF4",
"N  c #B5B5FA",
"B  c #B4B3FF",
"V  c #B6B6FD",
"C  c #B4B4FE",
"Z  c #B5B4FE",
"A  c #B9B8FF",
"S  c #BAB9FF",
"D  c #BCBCFF",
"F  c #BDBDFF",
"G  c #BEBDFF",
"H  c #BFBEFF",
"J  c #C0BFE8",
"K  c #BEC0E0",
"L  c #C4C0E3",
"P  c #C1C3E4",
"I  c #C6C3E5",
"U  c #CAC7E7",
"Y  c #C7C8E7",
"T  c #C5C2E8",
"R  c #D0CDEC",
"E  c #CFD1EB",
"W  c #D1D2EE",
"Q  c #D1D3EE",
"!  c #C3C4F7",
"~  c #C0C0FA",
"^  c #C2C1FF",
"/  c #C2C2FF",
"(  c #C4C3FF",
")  c #C5C5FF",
"_  c #C7C7FE",
"`  c #C6C6FF",
"'  c #C7C6FF",
"]  c #CACAFF",
"[  c #CBCAFF",
"{  c #CCCBFF",
"}  c #D1CFF2",
"|  c #D5D5F0",
" . c #D2D3F7",
".. c #D5D5F7",
"X. c #D6D8F0",
"o. c #DEDFF4",
"O. c #D2D2F8",
"+. c #D1D1FD",
"@. c #D3D0FC",
"#. c #D1D0FF",
"$. c #D2D1FF",
"%. c #D3D2FF",
"&. c #D5D4FF",
"*. c #D6D5FF",
"=. c #D6D6FF",
"-. c #D7D6FF",
";. c #D8D7FF",
":. c #DCDCF8",
">. c #DCDBFF",
",. c #DEDCFF",
"<. c #DEDEFF",
"1. c #DFDEFF",
"2. c #E1DEF6",
"3. c #E2DFFF",
"4. c #E6E5F2",
"5. c #E2E1F6",
"6. c #EAE9F7",
"7. c #E7E6F8",
"8. c #E1E0FE",
"9. c #E2E1FF",
"0. c #E3E1FF",
"q. c #E4E1FE",
"w. c #E7E6FF",
"e. c #E7E7FF",
"r. c #E9E9FB",
"t. c #EEEDF9",
"y. c #ECECFA",
"u. c #E9E9FC",
"i. c #EBEAFC",
"p. c #EAE9FF",
"a. c #EBE9FF",
"s. c #EBEAFF",
"d. c #EDEBFF",
"f. c #ECECFD",
"g. c #EEECFF",
"h. c #EFEDFF",
"j. c #EFEEFF",
"k. c #F0EFFA",
"l. c #F0EEFF",
"z. c #F0EFFF",
"x. c #F1EFFF",
"c. c #F1F1FE",
"v. c #F2F1FF",
"b. c #F3F1FF",
"n. c #F6F6FD",
"m. c #F7F7FE",
"M. c #F6F6FF",
"N. c #F7F6FF",
"B. c #F8F7FF",
"V. c #F9F7FF",
"C. c #F8F8FD",
"Z. c #F8F8FF",
"A. c #FAF9FF",
"S. c #FBFAFF",
"D. c #FBFBFF",
"F. c #FCFBFF",
"G. c #FCFCFF",
"H. c #FDFCFF",
"J. c #FDFDFF",
"K. c #FFFEFF",
"L. c #FFFFFF",
/* pixels */
"            h k j                   ",
"        T 5.i.8.+.~ n               ",
"      R M.L.L.B.w.&.) N z           ",
"    U C.L.L.L.L.f.8.+./ V x         ",
"  a 6.L.L.L.C. .e i ..[ F V c       ",
"  y 7.L.L.L.C.M 3 # s &./ S B c     ",
"  O 7 | M.L.L.c.O.T } &.) F S V b   ",
"    . = q W M.L.L.C.i.;.{ / F F ) ! ",
"        X 9 y.L.L.C.d.>.+.[ ) &.W 8 ",
"        d 4.L.L.L.C.i.1.&.+.1.X.2   ",
"      I y.L.L.L.L.M.i.8.1.w.E 6     ",
"    L k.L.L.L.L.C.c.i.i.i.K 1       ",
"  p 2.L.L.L.F.B.c.f.z.o.t :         ",
"  g q.d.z.z.z.f.f.i.Y 5 o           ",
"  r +.1.3.q.8.:.P 0 - +             ",
"  @ w l m f u 4 > $                 ",
"    % , < ; * &                     ",
"                                    "
};
