/* XPM */
static char *steam_logo[] = {
/* columns rows colors chars-per-pixel */
"18 18 149 2 ",
"   c None",
".  c #081731",
"X  c #061836",
"o  c #071936",
"O  c #071937",
"+  c #081831",
"@  c #091932",
"#  c #0A1A33",
"$  c #0B1A33",
"%  c #0B1B33",
"&  c #0D1C31",
"*  c #0E1C30",
"=  c #0E1C31",
"-  c #0B1A34",
";  c #0B1B34",
":  c #081937",
">  c #041739",
",  c #04173D",
"<  c #05183A",
"1  c #06183A",
"2  c #06183B",
"3  c #05183E",
"4  c #07193F",
"5  c #0D1E3B",
"6  c #041640",
"7  c #071947",
"8  c #081943",
"9  c #081A43",
"0  c #091A43",
"q  c #091A44",
"w  c #091B48",
"e  c #0A1C49",
"r  c #0A1F4F",
"t  c #162847",
"y  c #11224A",
"u  c #12234F",
"i  c #0B2050",
"p  c #0C2050",
"a  c #0D2251",
"s  c #0F285A",
"d  c #1A2A54",
"f  c #10285A",
"g  c #1B2E5B",
"h  c #22324C",
"j  c #122F63",
"k  c #133064",
"l  c #193161",
"z  c #10386C",
"x  c #12396E",
"c  c #133B6E",
"v  c #133B6F",
"b  c #203665",
"n  c #35435B",
"m  c #124478",
"M  c #144679",
"N  c #1E4E7F",
"B  c #324160",
"V  c #2A4574",
"C  c #304570",
"Z  c #2C507E",
"A  c #455268",
"S  c #5A667C",
"D  c #104E82",
"F  c #124F82",
"G  c #125083",
"H  c #145184",
"J  c #145285",
"K  c #135C8F",
"L  c #135D90",
"P  c #175F92",
"I  c #315E8B",
"U  c #196193",
"Y  c #10689B",
"T  c #12689B",
"R  c #13689B",
"E  c #11689C",
"W  c #136A9C",
"Q  c #136A9D",
"!  c #1378AA",
"~  c #137AAB",
"^  c #137AAC",
"/  c #526082",
"(  c #5D6D8F",
")  c #596F94",
"_  c #6E7890",
"`  c #737F9B",
"'  c #7D879A",
"]  c #4C85AC",
"[  c #5087AD",
"{  c #5A85A9",
"}  c #7784A0",
"|  c #6B92B2",
" . c #6A99BA",
".. c #7695B3",
"X. c #818BA4",
"o. c #8491AB",
"O. c #9199AA",
"+. c #939AAB",
"@. c #939BAD",
"#. c #969EAC",
"$. c #859FBA",
"%. c #919AB0",
"&. c #959CB0",
"*. c #98A1B5",
"=. c #99A1B6",
"-. c #98A9BF",
";. c #A5ABB9",
":. c #91ADC5",
">. c #9FB0C5",
",. c #AFB5C4",
"<. c #A2BACF",
"1. c #ABBDCF",
"2. c #ADBCCE",
"3. c #B5BAC7",
"4. c #B5BBC8",
"5. c #B7BCC8",
"6. c #B1BBCC",
"7. c #B8BDC9",
"8. c #BDC2CE",
"9. c #BEC3CE",
"0. c #ACC2D4",
"q. c #C2C6D0",
"w. c #C4C8D1",
"e. c #C7CBD3",
"r. c #C7CCD7",
"t. c #CBCFD6",
"y. c #CBCFD9",
"u. c #C9CFDA",
"i. c #C8CFDC",
"p. c #CDD1D8",
"a. c #CBD2DD",
"s. c #CCD2DD",
"d. c #D1D9E3",
"f. c #D7DAE3",
"g. c #DCE3EA",
"h. c #DEE6ED",
"j. c #E0E4EA",
"k. c #E4E6EB",
"l. c #EBEDF1",
"z. c #ECEDF0",
"x. c #EFF1F4",
"c. c #F2F3F5",
"v. c #F6F7F9",
"b. c #F8FAFB",
"n. c #FAFAFB",
"m. c #FDFDFE",
"M. c #FEFEFE",
"N. c #FEFFFF",
"B. c #FFFFFF",
/* pixels */
"                                    ",
"            & & & & & &             ",
"        : % % % % % % . % %         ",
"      O : : O O O O h A n 5 O       ",
"    2 2 2 2 2 2 2 S w.w.t.#.t >     ",
"    4 4 4 4 4 , B p.O.;.O.q.' 4     ",
"  q 9 9 9 9 9 6 _ 3.5.B.l.@.5.y 9   ",
"  7 w e e e w d 8.8.,.B.k.&.4.u e   ",
"  / g r i p p X.B.c.*.*.%.u.` i p   ",
"  v.r.} C b ( l.B.B.n.f.u.o.l s f   ",
"  B.B.B.j.s.6.i.B.B.a.) V k j k k   ",
"  2.g.B.B.B.x.-.d.>.Z z z z z z z   ",
"    I ..h.n.B.1.$.H m M M M M M     ",
"    D D | 0.<.:.{ G J J J J J J     ",
"      K U [  .] U K L L L L K       ",
"        R R Q R Q Q Q Q Q R         ",
"            ! ! ^ ^ ! !             ",
"                                    "
};
