/* XPM */
static char *test_terminal[] = {
/* columns rows colors chars-per-pixel */
"18 18 31 1 ",
"  c None",
". c #304457",
"X c #31465B",
"o c #32465A",
"O c #31465C",
"+ c #32475C",
"@ c #33485D",
"# c #33485E",
"$ c #34495E",
"% c #384D61",
"& c #394E62",
"* c #3B4F63",
"= c #3F5367",
"- c #43566A",
"; c #44576B",
": c #4B5E71",
"> c #4D6072",
", c #506274",
"< c #566879",
"1 c #57697A",
"2 c #607181",
"3 c #6A7A89",
"4 c #6B7B8A",
"5 c #6C7C8B",
"6 c #748391",
"7 c #8A97A3",
"8 c #8C99A4",
"9 c #8D9AA5",
"0 c #96A2AC",
"q c #99A5AF",
"w c #ABB5BD",
/* pixels */
"                  ",
"                  ",
" $$#$$$$$$$$$$$$$ ",
" $%=O$$$$$$$$$$$$ ",
" #-q6%O$$$$$$$$$$ ",
" $$>0w<#$$$$$$$$$ ",
" $$>0w<OOO#$$$$$$ ",
" #-q6%:7992#$$$$$ ",
" $%=O#;445,#$$$$$ ",
" $$#$$#OOO#$$$$$$ ",
" $$$$$$$$$$$$$$$$ ",
" $$$$$$$$$$$$$$$$ ",
" $$$$$$$$$$$$$$$$ ",
" $$$$$$$$$$$$$$$$ ",
" $$$$$$$$$$$$$$$$ ",
" .oooooooooooooo. ",
"                  ",
"                  "
};
